%TF.GenerationSoftware,KiCad,Pcbnew,7.0.5*%
%TF.CreationDate,2023-08-26T23:20:04+09:00*%
%TF.ProjectId,Power_Supply,506f7765-725f-4537-9570-706c792e6b69,rev?*%
%TF.SameCoordinates,Original*%
%TF.FileFunction,Soldermask,Top*%
%TF.FilePolarity,Negative*%
%FSLAX46Y46*%
G04 Gerber Fmt 4.6, Leading zero omitted, Abs format (unit mm)*
G04 Created by KiCad (PCBNEW 7.0.5) date 2023-08-26 23:20:04*
%MOMM*%
%LPD*%
G01*
G04 APERTURE LIST*
G04 Aperture macros list*
%AMRoundRect*
0 Rectangle with rounded corners*
0 $1 Rounding radius*
0 $2 $3 $4 $5 $6 $7 $8 $9 X,Y pos of 4 corners*
0 Add a 4 corners polygon primitive as box body*
4,1,4,$2,$3,$4,$5,$6,$7,$8,$9,$2,$3,0*
0 Add four circle primitives for the rounded corners*
1,1,$1+$1,$2,$3*
1,1,$1+$1,$4,$5*
1,1,$1+$1,$6,$7*
1,1,$1+$1,$8,$9*
0 Add four rect primitives between the rounded corners*
20,1,$1+$1,$2,$3,$4,$5,0*
20,1,$1+$1,$4,$5,$6,$7,0*
20,1,$1+$1,$6,$7,$8,$9,0*
20,1,$1+$1,$8,$9,$2,$3,0*%
G04 Aperture macros list end*
%ADD10RoundRect,0.250000X0.600000X0.750000X-0.600000X0.750000X-0.600000X-0.750000X0.600000X-0.750000X0*%
%ADD11O,1.700000X2.000000*%
%ADD12C,1.600000*%
%ADD13O,1.600000X1.600000*%
%ADD14R,1.800000X1.800000*%
%ADD15C,1.800000*%
%ADD16RoundRect,0.249997X-2.650003X2.950003X-2.650003X-2.950003X2.650003X-2.950003X2.650003X2.950003X0*%
%ADD17RoundRect,0.250000X-0.350000X0.850000X-0.350000X-0.850000X0.350000X-0.850000X0.350000X0.850000X0*%
%ADD18C,6.000000*%
%ADD19RoundRect,1.500000X1.500000X-1.500000X1.500000X1.500000X-1.500000X1.500000X-1.500000X-1.500000X0*%
%ADD20C,9.000000*%
%ADD21O,2.000000X1.700000*%
%ADD22RoundRect,0.250000X-0.750000X0.600000X-0.750000X-0.600000X0.750000X-0.600000X0.750000X0.600000X0*%
%ADD23C,0.800000*%
%ADD24C,6.400000*%
%ADD25R,1.570000X2.820000*%
%ADD26C,2.000000*%
G04 APERTURE END LIST*
D10*
%TO.C,J16*%
X149820000Y-89789000D03*
D11*
X147320000Y-89789000D03*
%TD*%
D10*
%TO.C,J15*%
X149820000Y-97589000D03*
D11*
X147320000Y-97589000D03*
%TD*%
D12*
%TO.C,R7*%
X93980000Y-90418000D03*
D13*
X93980000Y-98038000D03*
%TD*%
D14*
%TO.C,D5*%
X93980000Y-104388000D03*
D15*
X93980000Y-101848000D03*
%TD*%
D13*
%TO.C,R12*%
X71120000Y-84475000D03*
D12*
X63500000Y-84475000D03*
%TD*%
D13*
%TO.C,R11*%
X87630000Y-77222000D03*
D12*
X87630000Y-69602000D03*
%TD*%
%TO.C,R10*%
X134874000Y-69392000D03*
D13*
X134874000Y-77012000D03*
%TD*%
D12*
%TO.C,R9*%
X125463000Y-90214000D03*
D13*
X125463000Y-97834000D03*
%TD*%
D12*
%TO.C,R8*%
X141211000Y-90170000D03*
D13*
X141211000Y-97790000D03*
%TD*%
D12*
%TO.C,R5*%
X109207000Y-90170000D03*
D13*
X109207000Y-97790000D03*
%TD*%
D12*
%TO.C,R4*%
X150602000Y-69392000D03*
D13*
X150602000Y-77012000D03*
%TD*%
D12*
%TO.C,R3*%
X119126000Y-69392000D03*
D13*
X119126000Y-77012000D03*
%TD*%
%TO.C,R2*%
X103378000Y-77222000D03*
D12*
X103378000Y-69602000D03*
%TD*%
D13*
%TO.C,R1*%
X71120000Y-81300000D03*
D12*
X63500000Y-81300000D03*
%TD*%
D16*
%TO.C,Q2*%
X66813000Y-95655000D03*
D17*
X64533000Y-89355000D03*
X69093000Y-89355000D03*
%TD*%
%TO.C,Q1*%
X78225000Y-89355000D03*
X73665000Y-89355000D03*
D16*
X75945000Y-95655000D03*
%TD*%
D18*
%TO.C,J14*%
X133604000Y-102698000D03*
D19*
X133604000Y-95498000D03*
%TD*%
D18*
%TO.C,J13*%
X117856000Y-102698000D03*
D19*
X117856000Y-95498000D03*
%TD*%
D18*
%TO.C,J12*%
X102018000Y-102698000D03*
D19*
X102018000Y-95498000D03*
%TD*%
D18*
%TO.C,J11*%
X86360000Y-102698000D03*
D19*
X86360000Y-95498000D03*
%TD*%
D20*
%TO.C,J10*%
X139065000Y-51650000D03*
X139065000Y-62650000D03*
%TD*%
D19*
%TO.C,J9*%
X142982000Y-74806000D03*
D18*
X142982000Y-82006000D03*
%TD*%
D19*
%TO.C,J8*%
X127234000Y-74930000D03*
D18*
X127234000Y-82130000D03*
%TD*%
D19*
%TO.C,J7*%
X111486000Y-74930000D03*
D18*
X111486000Y-82130000D03*
%TD*%
D21*
%TO.C,J6*%
X70760000Y-77196000D03*
D22*
X70760000Y-74696000D03*
%TD*%
%TO.C,J5*%
X70760000Y-66060000D03*
D21*
X70760000Y-68560000D03*
%TD*%
D10*
%TO.C,J4*%
X81823000Y-55626000D03*
D11*
X79323000Y-55626000D03*
%TD*%
D19*
%TO.C,J3*%
X95648000Y-74930000D03*
D18*
X95648000Y-82130000D03*
%TD*%
D10*
%TO.C,J2*%
X90765000Y-55520000D03*
D11*
X88265000Y-55520000D03*
%TD*%
D19*
%TO.C,J1*%
X79990000Y-74930000D03*
D18*
X79990000Y-82130000D03*
%TD*%
D23*
%TO.C,H4*%
X146571000Y-104775000D03*
X147273944Y-106472056D03*
X147273944Y-103077944D03*
X148971000Y-107175000D03*
D24*
X148971000Y-104775000D03*
D23*
X151371000Y-104775000D03*
X150668056Y-103077944D03*
X150668056Y-106472056D03*
X148971000Y-102375000D03*
%TD*%
%TO.C,H3*%
X62751000Y-104775000D03*
X63453944Y-106472056D03*
X63453944Y-103077944D03*
X65151000Y-107175000D03*
D24*
X65151000Y-104775000D03*
D23*
X67551000Y-104775000D03*
X66848056Y-103077944D03*
X66848056Y-106472056D03*
X65151000Y-102375000D03*
%TD*%
%TO.C,H2*%
X146571000Y-50165000D03*
X147273944Y-51862056D03*
X147273944Y-48467944D03*
X148971000Y-52565000D03*
D24*
X148971000Y-50165000D03*
D23*
X151371000Y-50165000D03*
X150668056Y-48467944D03*
X150668056Y-51862056D03*
X148971000Y-47765000D03*
%TD*%
%TO.C,H1*%
X62751000Y-50165000D03*
X63453944Y-51862056D03*
X63453944Y-48467944D03*
X65151000Y-52565000D03*
D24*
X65151000Y-50165000D03*
D23*
X67551000Y-50165000D03*
X66848056Y-48467944D03*
X66848056Y-51862056D03*
X65151000Y-47765000D03*
%TD*%
D25*
%TO.C,F1*%
X112140000Y-51450000D03*
X98680000Y-51450000D03*
X98680000Y-57770000D03*
X112140000Y-57770000D03*
%TD*%
D14*
%TO.C,D9*%
X109080000Y-103886000D03*
D15*
X109080000Y-101346000D03*
%TD*%
D14*
%TO.C,D8*%
X150602000Y-83235000D03*
D15*
X150602000Y-80695000D03*
%TD*%
D14*
%TO.C,D7*%
X119126000Y-83235000D03*
D15*
X119126000Y-80695000D03*
%TD*%
D14*
%TO.C,D6*%
X103378000Y-83572000D03*
D15*
X103378000Y-81032000D03*
%TD*%
D14*
%TO.C,D4*%
X141084000Y-103676000D03*
D15*
X141084000Y-101136000D03*
%TD*%
D14*
%TO.C,D3*%
X125463000Y-103930000D03*
D15*
X125463000Y-101390000D03*
%TD*%
%TO.C,D2*%
X134874000Y-80695000D03*
D14*
X134874000Y-83235000D03*
%TD*%
%TO.C,D1*%
X87630000Y-83572000D03*
D15*
X87630000Y-81032000D03*
%TD*%
D26*
%TO.C,C1*%
X125095000Y-58487000D03*
X125095000Y-50987000D03*
%TD*%
M02*
