M48
; DRILL file {KiCad 7.0.5} date Sat Aug 26 23:20:06 2023
; FORMAT={-:-/ absolute / inch / decimal}
; #@! TF.CreationDate,2023-08-26T23:20:06+09:00
; #@! TF.GenerationSoftware,Kicad,Pcbnew,7.0.5
; #@! TF.FileFunction,Plated,1,2,PTH
FMAT,2
INCH
; #@! TA.AperFunction,Plated,PTH,ViaDrill
T1C0.0118
; #@! TA.AperFunction,Plated,PTH,ComponentDrill
T2C0.0197
; #@! TA.AperFunction,Plated,PTH,ComponentDrill
T3C0.0315
; #@! TA.AperFunction,Plated,PTH,ComponentDrill
T4C0.0354
; #@! TA.AperFunction,Plated,PTH,ComponentDrill
T5C0.0394
; #@! TA.AperFunction,Plated,PTH,ComponentDrill
T6C0.1260
; #@! TA.AperFunction,Plated,PTH,ComponentDrill
T7C0.1772
; #@! TA.AperFunction,Plated,PTH,ComponentDrill
T8C0.2362
%
G90
G05
T1
X2.49Y-3.47
X2.49Y-3.5
X2.49Y-3.53
X2.52Y-3.44
X2.52Y-3.47
X2.52Y-3.5
X2.52Y-3.53
X2.52Y-3.56
X2.54Y-3.41
X2.55Y-3.44
X2.55Y-3.47
X2.55Y-3.5
X2.55Y-3.53
X2.55Y-3.56
X2.57Y-3.38
X2.57Y-3.41
X2.58Y-3.32
X2.58Y-3.35
X2.58Y-3.44
X2.58Y-3.47
X2.58Y-3.5
X2.58Y-3.53
X2.58Y-3.56
X2.6Y-3.38
X2.6Y-3.41
X2.61Y-3.32
X2.61Y-3.35
X2.61Y-3.44
X2.61Y-3.47
X2.61Y-3.5
X2.61Y-3.53
X2.61Y-3.56
X2.63Y-3.38
X2.63Y-3.41
X2.64Y-3.32
X2.64Y-3.35
X2.64Y-3.44
X2.64Y-3.47
X2.64Y-3.5
X2.64Y-3.53
X2.64Y-3.56
X2.66Y-3.38
X2.66Y-3.41
X2.67Y-3.32
X2.67Y-3.35
X2.67Y-3.44
X2.67Y-3.47
X2.67Y-3.5
X2.67Y-3.53
X2.67Y-3.56
X2.69Y-3.38
X2.69Y-3.41
X2.7Y-3.32
X2.7Y-3.35
X2.71Y-3.44
X2.72Y-3.38
X2.72Y-3.41
X2.73Y-3.32
X2.73Y-3.35
X2.74Y-3.44
X2.75Y-3.38
X2.75Y-3.41
X2.77Y-3.47
X2.77Y-3.5
X2.77Y-3.53
X2.78Y-3.38
X2.78Y-3.41
X2.78Y-3.44
X2.8Y-3.47
X2.8Y-3.5
X2.8Y-3.53
X2.8Y-3.56
X2.81Y-3.38
X2.81Y-3.41
X2.81Y-3.44
X2.83Y-3.47
X2.83Y-3.5
X2.83Y-3.53
X2.83Y-3.56
X2.84Y-3.38
X2.84Y-3.41
X2.84Y-3.44
X2.86Y-3.47
X2.86Y-3.5
X2.86Y-3.53
X2.86Y-3.56
X2.87Y-3.38
X2.87Y-3.41
X2.87Y-3.44
X2.9Y-3.38
X2.9Y-3.41
X2.9Y-3.44
X2.93Y-3.38
X2.93Y-3.41
X2.93Y-3.44
X2.94Y-3.47
X2.94Y-3.5
X2.94Y-3.53
X2.94Y-3.56
X2.96Y-3.41
X2.96Y-3.44
X2.97Y-3.47
X2.97Y-3.5
X2.97Y-3.53
X2.97Y-3.56
X2.99Y-3.44
X3.0Y-3.47
X3.0Y-3.5
X3.0Y-3.53
X3.0Y-3.56
X3.03Y-3.5
X3.03Y-3.53
X3.52Y-2.68
X3.52Y-2.71
X3.52Y-2.74
X3.52Y-2.77
X3.52Y-2.8
X3.55Y-2.65
X3.55Y-2.68
X3.55Y-2.71
X3.55Y-2.74
X3.55Y-2.77
X3.55Y-2.8
X3.58Y-2.65
X3.58Y-2.68
X3.58Y-2.71
X3.58Y-2.74
X3.58Y-2.77
X3.58Y-2.8
X3.61Y-2.62
X3.61Y-2.65
X3.61Y-2.68
X3.61Y-2.71
X3.61Y-2.74
X3.61Y-2.77
X3.61Y-2.8
X3.64Y-2.62
X3.64Y-2.65
X3.64Y-2.68
X3.64Y-2.71
X3.64Y-2.74
X3.64Y-2.77
X3.64Y-2.8
X3.67Y-2.62
X3.67Y-2.65
X3.67Y-2.68
X3.67Y-2.71
X3.67Y-2.74
X3.67Y-2.77
X3.67Y-2.8
X3.7Y-2.62
X3.7Y-2.65
X3.7Y-2.68
X3.7Y-2.71
X3.7Y-2.74
X3.7Y-2.77
X3.7Y-2.8
X3.73Y-2.62
X3.73Y-2.65
X3.73Y-2.68
X3.73Y-2.71
X3.73Y-2.74
X3.73Y-2.77
X3.73Y-2.8
X3.76Y-2.62
X3.76Y-2.65
X3.76Y-2.68
X3.76Y-2.71
X3.76Y-2.74
X3.76Y-2.77
X3.76Y-2.8
X3.79Y-2.62
X3.79Y-2.65
X3.79Y-2.68
X3.79Y-2.71
X3.79Y-2.74
X3.79Y-2.77
X3.79Y-2.8
X3.82Y-2.62
X3.82Y-2.65
X3.82Y-2.68
X3.82Y-2.71
X3.82Y-2.74
X3.82Y-2.77
X3.82Y-2.8
X3.85Y-2.62
X3.85Y-2.65
X3.85Y-2.68
X3.85Y-2.71
X3.85Y-2.74
X3.85Y-2.77
X3.85Y-2.8
X3.88Y-2.62
X3.88Y-2.65
X3.88Y-2.68
X3.88Y-2.71
X3.88Y-2.74
X3.88Y-2.77
X3.88Y-2.8
X3.91Y-2.62
X3.91Y-2.65
X3.91Y-2.68
X3.91Y-2.71
X3.91Y-2.74
X3.91Y-2.77
X3.91Y-2.8
X3.94Y-2.62
X3.94Y-2.65
X3.94Y-2.68
X3.94Y-2.71
X3.94Y-2.74
X3.94Y-2.77
X3.94Y-2.8
X3.97Y-2.62
X3.97Y-2.65
X3.97Y-2.68
X3.97Y-2.71
X3.97Y-2.74
X3.97Y-2.77
X3.97Y-2.8
X4.0Y-2.62
X4.0Y-2.65
X4.0Y-2.68
X4.0Y-2.71
X4.0Y-2.74
X4.0Y-2.77
X4.0Y-2.8
T2
X2.4705Y-1.975
X2.4705Y-4.125
X2.4982Y-1.9082
X2.4982Y-2.0418
X2.4982Y-4.0582
X2.4982Y-4.1918
X2.565Y-1.8805
X2.565Y-2.0695
X2.565Y-4.0305
X2.565Y-4.2195
X2.6318Y-1.9082
X2.6318Y-2.0418
X2.6318Y-4.0582
X2.6318Y-4.1918
X2.6595Y-1.975
X2.6595Y-4.125
X5.7705Y-1.975
X5.7705Y-4.125
X5.7982Y-1.9082
X5.7982Y-2.0418
X5.7982Y-4.0582
X5.7982Y-4.1918
X5.865Y-1.8805
X5.865Y-2.0695
X5.865Y-4.0305
X5.865Y-4.2195
X5.9318Y-1.9082
X5.9318Y-2.0418
X5.9318Y-4.0582
X5.9318Y-4.1918
X5.9595Y-1.975
X5.9595Y-4.125
T3
X2.5Y-3.2008
X2.5Y-3.3258
X2.8Y-3.2008
X2.8Y-3.3258
X3.45Y-2.7402
X3.45Y-3.0402
X3.7Y-3.5598
X3.7Y-3.8598
X4.07Y-2.7402
X4.07Y-3.0402
X4.2995Y-3.55
X4.2995Y-3.85
X4.69Y-2.732
X4.69Y-3.032
X4.9395Y-3.5517
X4.9395Y-3.8517
X5.31Y-2.732
X5.31Y-3.032
X5.5595Y-3.55
X5.5595Y-3.85
X5.9292Y-2.732
X5.9292Y-3.032
T4
X3.45Y-3.1902
X3.45Y-3.2902
X3.7Y-4.0098
X3.7Y-4.1098
X4.07Y-3.1902
X4.07Y-3.2902
X4.2945Y-3.99
X4.2945Y-4.09
X4.69Y-3.177
X4.69Y-3.277
X4.9395Y-3.9917
X4.9395Y-4.0917
X5.31Y-3.177
X5.31Y-3.277
X5.5545Y-3.9817
X5.5545Y-4.0817
X5.9292Y-3.177
X5.9292Y-3.277
T5
X2.7858Y-2.6008
X2.7858Y-2.6992
X2.7858Y-2.9408
X2.7858Y-3.0392
X3.123Y-2.19
X3.2214Y-2.19
X3.475Y-2.1858
X3.5734Y-2.1858
X4.925Y-2.0074
X4.925Y-2.3026
X5.8Y-3.535
X5.8Y-3.8421
X5.8984Y-3.535
X5.8984Y-3.8421
T6
X2.565Y-1.975
X2.565Y-4.125
X5.865Y-1.975
X5.865Y-4.125
T7
X3.1492Y-2.95
X3.1492Y-3.2335
X3.4Y-3.7598
X3.4Y-4.0432
X3.7657Y-2.95
X3.7657Y-3.2335
X4.0165Y-3.7598
X4.0165Y-4.0432
X4.3892Y-2.95
X4.3892Y-3.2335
X4.64Y-3.7598
X4.64Y-4.0432
X5.0092Y-2.95
X5.0092Y-3.2335
X5.26Y-3.7598
X5.26Y-4.0432
X5.6292Y-2.9451
X5.6292Y-3.2286
T8
X5.475Y-2.0335
X5.475Y-2.4665
T0
M30
