%TF.GenerationSoftware,KiCad,Pcbnew,7.0.5*%
%TF.CreationDate,2023-08-26T23:20:04+09:00*%
%TF.ProjectId,Power_Supply,506f7765-725f-4537-9570-706c792e6b69,rev?*%
%TF.SameCoordinates,Original*%
%TF.FileFunction,Legend,Bot*%
%TF.FilePolarity,Positive*%
%FSLAX46Y46*%
G04 Gerber Fmt 4.6, Leading zero omitted, Abs format (unit mm)*
G04 Created by KiCad (PCBNEW 7.0.5) date 2023-08-26 23:20:04*
%MOMM*%
%LPD*%
G01*
G04 APERTURE LIST*
%ADD10C,0.300000*%
G04 APERTURE END LIST*
D10*
X91464917Y-50640685D02*
X91393489Y-50569257D01*
X91393489Y-50569257D02*
X91250632Y-50497828D01*
X91250632Y-50497828D02*
X90893489Y-50497828D01*
X90893489Y-50497828D02*
X90750632Y-50569257D01*
X90750632Y-50569257D02*
X90679203Y-50640685D01*
X90679203Y-50640685D02*
X90607774Y-50783542D01*
X90607774Y-50783542D02*
X90607774Y-50926400D01*
X90607774Y-50926400D02*
X90679203Y-51140685D01*
X90679203Y-51140685D02*
X91536346Y-51997828D01*
X91536346Y-51997828D02*
X90607774Y-51997828D01*
X89679203Y-50497828D02*
X89536346Y-50497828D01*
X89536346Y-50497828D02*
X89393489Y-50569257D01*
X89393489Y-50569257D02*
X89322061Y-50640685D01*
X89322061Y-50640685D02*
X89250632Y-50783542D01*
X89250632Y-50783542D02*
X89179203Y-51069257D01*
X89179203Y-51069257D02*
X89179203Y-51426400D01*
X89179203Y-51426400D02*
X89250632Y-51712114D01*
X89250632Y-51712114D02*
X89322061Y-51854971D01*
X89322061Y-51854971D02*
X89393489Y-51926400D01*
X89393489Y-51926400D02*
X89536346Y-51997828D01*
X89536346Y-51997828D02*
X89679203Y-51997828D01*
X89679203Y-51997828D02*
X89822061Y-51926400D01*
X89822061Y-51926400D02*
X89893489Y-51854971D01*
X89893489Y-51854971D02*
X89964918Y-51712114D01*
X89964918Y-51712114D02*
X90036346Y-51426400D01*
X90036346Y-51426400D02*
X90036346Y-51069257D01*
X90036346Y-51069257D02*
X89964918Y-50783542D01*
X89964918Y-50783542D02*
X89893489Y-50640685D01*
X89893489Y-50640685D02*
X89822061Y-50569257D01*
X89822061Y-50569257D02*
X89679203Y-50497828D01*
X88607775Y-50640685D02*
X88536347Y-50569257D01*
X88536347Y-50569257D02*
X88393490Y-50497828D01*
X88393490Y-50497828D02*
X88036347Y-50497828D01*
X88036347Y-50497828D02*
X87893490Y-50569257D01*
X87893490Y-50569257D02*
X87822061Y-50640685D01*
X87822061Y-50640685D02*
X87750632Y-50783542D01*
X87750632Y-50783542D02*
X87750632Y-50926400D01*
X87750632Y-50926400D02*
X87822061Y-51140685D01*
X87822061Y-51140685D02*
X88679204Y-51997828D01*
X88679204Y-51997828D02*
X87750632Y-51997828D01*
X87250633Y-50497828D02*
X86322061Y-50497828D01*
X86322061Y-50497828D02*
X86822061Y-51069257D01*
X86822061Y-51069257D02*
X86607776Y-51069257D01*
X86607776Y-51069257D02*
X86464919Y-51140685D01*
X86464919Y-51140685D02*
X86393490Y-51212114D01*
X86393490Y-51212114D02*
X86322061Y-51354971D01*
X86322061Y-51354971D02*
X86322061Y-51712114D01*
X86322061Y-51712114D02*
X86393490Y-51854971D01*
X86393490Y-51854971D02*
X86464919Y-51926400D01*
X86464919Y-51926400D02*
X86607776Y-51997828D01*
X86607776Y-51997828D02*
X87036347Y-51997828D01*
X87036347Y-51997828D02*
X87179204Y-51926400D01*
X87179204Y-51926400D02*
X87250633Y-51854971D01*
X84536348Y-51997828D02*
X84536348Y-50497828D01*
X83179205Y-51926400D02*
X83322062Y-51997828D01*
X83322062Y-51997828D02*
X83607776Y-51997828D01*
X83607776Y-51997828D02*
X83750633Y-51926400D01*
X83750633Y-51926400D02*
X83822062Y-51854971D01*
X83822062Y-51854971D02*
X83893490Y-51712114D01*
X83893490Y-51712114D02*
X83893490Y-51283542D01*
X83893490Y-51283542D02*
X83822062Y-51140685D01*
X83822062Y-51140685D02*
X83750633Y-51069257D01*
X83750633Y-51069257D02*
X83607776Y-50997828D01*
X83607776Y-50997828D02*
X83322062Y-50997828D01*
X83322062Y-50997828D02*
X83179205Y-51069257D01*
X82536348Y-51997828D02*
X82536348Y-50497828D01*
X81893491Y-51997828D02*
X81893491Y-51212114D01*
X81893491Y-51212114D02*
X81964919Y-51069257D01*
X81964919Y-51069257D02*
X82107776Y-50997828D01*
X82107776Y-50997828D02*
X82322062Y-50997828D01*
X82322062Y-50997828D02*
X82464919Y-51069257D01*
X82464919Y-51069257D02*
X82536348Y-51140685D01*
X81179205Y-51997828D02*
X81179205Y-50997828D01*
X81179205Y-50497828D02*
X81250633Y-50569257D01*
X81250633Y-50569257D02*
X81179205Y-50640685D01*
X81179205Y-50640685D02*
X81107776Y-50569257D01*
X81107776Y-50569257D02*
X81179205Y-50497828D01*
X81179205Y-50497828D02*
X81179205Y-50640685D01*
X80464919Y-50997828D02*
X80464919Y-51997828D01*
X80464919Y-51140685D02*
X80393490Y-51069257D01*
X80393490Y-51069257D02*
X80250633Y-50997828D01*
X80250633Y-50997828D02*
X80036347Y-50997828D01*
X80036347Y-50997828D02*
X79893490Y-51069257D01*
X79893490Y-51069257D02*
X79822062Y-51212114D01*
X79822062Y-51212114D02*
X79822062Y-51997828D01*
X78893490Y-51997828D02*
X79036347Y-51926400D01*
X79036347Y-51926400D02*
X79107776Y-51854971D01*
X79107776Y-51854971D02*
X79179204Y-51712114D01*
X79179204Y-51712114D02*
X79179204Y-51283542D01*
X79179204Y-51283542D02*
X79107776Y-51140685D01*
X79107776Y-51140685D02*
X79036347Y-51069257D01*
X79036347Y-51069257D02*
X78893490Y-50997828D01*
X78893490Y-50997828D02*
X78679204Y-50997828D01*
X78679204Y-50997828D02*
X78536347Y-51069257D01*
X78536347Y-51069257D02*
X78464919Y-51140685D01*
X78464919Y-51140685D02*
X78393490Y-51283542D01*
X78393490Y-51283542D02*
X78393490Y-51712114D01*
X78393490Y-51712114D02*
X78464919Y-51854971D01*
X78464919Y-51854971D02*
X78536347Y-51926400D01*
X78536347Y-51926400D02*
X78679204Y-51997828D01*
X78679204Y-51997828D02*
X78893490Y-51997828D01*
X77822061Y-51926400D02*
X77679204Y-51997828D01*
X77679204Y-51997828D02*
X77393490Y-51997828D01*
X77393490Y-51997828D02*
X77250633Y-51926400D01*
X77250633Y-51926400D02*
X77179204Y-51783542D01*
X77179204Y-51783542D02*
X77179204Y-51712114D01*
X77179204Y-51712114D02*
X77250633Y-51569257D01*
X77250633Y-51569257D02*
X77393490Y-51497828D01*
X77393490Y-51497828D02*
X77607776Y-51497828D01*
X77607776Y-51497828D02*
X77750633Y-51426400D01*
X77750633Y-51426400D02*
X77822061Y-51283542D01*
X77822061Y-51283542D02*
X77822061Y-51212114D01*
X77822061Y-51212114D02*
X77750633Y-51069257D01*
X77750633Y-51069257D02*
X77607776Y-50997828D01*
X77607776Y-50997828D02*
X77393490Y-50997828D01*
X77393490Y-50997828D02*
X77250633Y-51069257D01*
X75964918Y-51926400D02*
X76107775Y-51997828D01*
X76107775Y-51997828D02*
X76393490Y-51997828D01*
X76393490Y-51997828D02*
X76536347Y-51926400D01*
X76536347Y-51926400D02*
X76607775Y-51783542D01*
X76607775Y-51783542D02*
X76607775Y-51212114D01*
X76607775Y-51212114D02*
X76536347Y-51069257D01*
X76536347Y-51069257D02*
X76393490Y-50997828D01*
X76393490Y-50997828D02*
X76107775Y-50997828D01*
X76107775Y-50997828D02*
X75964918Y-51069257D01*
X75964918Y-51069257D02*
X75893490Y-51212114D01*
X75893490Y-51212114D02*
X75893490Y-51354971D01*
X75893490Y-51354971D02*
X76607775Y-51497828D01*
X75250633Y-51997828D02*
X75250633Y-50497828D01*
X75107776Y-51426400D02*
X74679204Y-51997828D01*
X74679204Y-50997828D02*
X75250633Y-51569257D01*
X74036347Y-51997828D02*
X74036347Y-50997828D01*
X74036347Y-50497828D02*
X74107775Y-50569257D01*
X74107775Y-50569257D02*
X74036347Y-50640685D01*
X74036347Y-50640685D02*
X73964918Y-50569257D01*
X73964918Y-50569257D02*
X74036347Y-50497828D01*
X74036347Y-50497828D02*
X74036347Y-50640685D01*
X73322061Y-51426400D02*
X72179204Y-51426400D01*
X70964918Y-51212114D02*
X70750632Y-51283542D01*
X70750632Y-51283542D02*
X70679203Y-51354971D01*
X70679203Y-51354971D02*
X70607775Y-51497828D01*
X70607775Y-51497828D02*
X70607775Y-51712114D01*
X70607775Y-51712114D02*
X70679203Y-51854971D01*
X70679203Y-51854971D02*
X70750632Y-51926400D01*
X70750632Y-51926400D02*
X70893489Y-51997828D01*
X70893489Y-51997828D02*
X71464918Y-51997828D01*
X71464918Y-51997828D02*
X71464918Y-50497828D01*
X71464918Y-50497828D02*
X70964918Y-50497828D01*
X70964918Y-50497828D02*
X70822061Y-50569257D01*
X70822061Y-50569257D02*
X70750632Y-50640685D01*
X70750632Y-50640685D02*
X70679203Y-50783542D01*
X70679203Y-50783542D02*
X70679203Y-50926400D01*
X70679203Y-50926400D02*
X70750632Y-51069257D01*
X70750632Y-51069257D02*
X70822061Y-51140685D01*
X70822061Y-51140685D02*
X70964918Y-51212114D01*
X70964918Y-51212114D02*
X71464918Y-51212114D01*
X91393489Y-49457828D02*
X91393489Y-47957828D01*
X91393489Y-47957828D02*
X90822060Y-47957828D01*
X90822060Y-47957828D02*
X90679203Y-48029257D01*
X90679203Y-48029257D02*
X90607774Y-48100685D01*
X90607774Y-48100685D02*
X90536346Y-48243542D01*
X90536346Y-48243542D02*
X90536346Y-48457828D01*
X90536346Y-48457828D02*
X90607774Y-48600685D01*
X90607774Y-48600685D02*
X90679203Y-48672114D01*
X90679203Y-48672114D02*
X90822060Y-48743542D01*
X90822060Y-48743542D02*
X91393489Y-48743542D01*
X89679203Y-49457828D02*
X89822060Y-49386400D01*
X89822060Y-49386400D02*
X89893489Y-49314971D01*
X89893489Y-49314971D02*
X89964917Y-49172114D01*
X89964917Y-49172114D02*
X89964917Y-48743542D01*
X89964917Y-48743542D02*
X89893489Y-48600685D01*
X89893489Y-48600685D02*
X89822060Y-48529257D01*
X89822060Y-48529257D02*
X89679203Y-48457828D01*
X89679203Y-48457828D02*
X89464917Y-48457828D01*
X89464917Y-48457828D02*
X89322060Y-48529257D01*
X89322060Y-48529257D02*
X89250632Y-48600685D01*
X89250632Y-48600685D02*
X89179203Y-48743542D01*
X89179203Y-48743542D02*
X89179203Y-49172114D01*
X89179203Y-49172114D02*
X89250632Y-49314971D01*
X89250632Y-49314971D02*
X89322060Y-49386400D01*
X89322060Y-49386400D02*
X89464917Y-49457828D01*
X89464917Y-49457828D02*
X89679203Y-49457828D01*
X88679203Y-48457828D02*
X88393489Y-49457828D01*
X88393489Y-49457828D02*
X88107774Y-48743542D01*
X88107774Y-48743542D02*
X87822060Y-49457828D01*
X87822060Y-49457828D02*
X87536346Y-48457828D01*
X86393488Y-49386400D02*
X86536345Y-49457828D01*
X86536345Y-49457828D02*
X86822060Y-49457828D01*
X86822060Y-49457828D02*
X86964917Y-49386400D01*
X86964917Y-49386400D02*
X87036345Y-49243542D01*
X87036345Y-49243542D02*
X87036345Y-48672114D01*
X87036345Y-48672114D02*
X86964917Y-48529257D01*
X86964917Y-48529257D02*
X86822060Y-48457828D01*
X86822060Y-48457828D02*
X86536345Y-48457828D01*
X86536345Y-48457828D02*
X86393488Y-48529257D01*
X86393488Y-48529257D02*
X86322060Y-48672114D01*
X86322060Y-48672114D02*
X86322060Y-48814971D01*
X86322060Y-48814971D02*
X87036345Y-48957828D01*
X85679203Y-49457828D02*
X85679203Y-48457828D01*
X85679203Y-48743542D02*
X85607774Y-48600685D01*
X85607774Y-48600685D02*
X85536346Y-48529257D01*
X85536346Y-48529257D02*
X85393488Y-48457828D01*
X85393488Y-48457828D02*
X85250631Y-48457828D01*
X84822060Y-49386400D02*
X84607775Y-49457828D01*
X84607775Y-49457828D02*
X84250632Y-49457828D01*
X84250632Y-49457828D02*
X84107775Y-49386400D01*
X84107775Y-49386400D02*
X84036346Y-49314971D01*
X84036346Y-49314971D02*
X83964917Y-49172114D01*
X83964917Y-49172114D02*
X83964917Y-49029257D01*
X83964917Y-49029257D02*
X84036346Y-48886400D01*
X84036346Y-48886400D02*
X84107775Y-48814971D01*
X84107775Y-48814971D02*
X84250632Y-48743542D01*
X84250632Y-48743542D02*
X84536346Y-48672114D01*
X84536346Y-48672114D02*
X84679203Y-48600685D01*
X84679203Y-48600685D02*
X84750632Y-48529257D01*
X84750632Y-48529257D02*
X84822060Y-48386400D01*
X84822060Y-48386400D02*
X84822060Y-48243542D01*
X84822060Y-48243542D02*
X84750632Y-48100685D01*
X84750632Y-48100685D02*
X84679203Y-48029257D01*
X84679203Y-48029257D02*
X84536346Y-47957828D01*
X84536346Y-47957828D02*
X84179203Y-47957828D01*
X84179203Y-47957828D02*
X83964917Y-48029257D01*
X82679204Y-48457828D02*
X82679204Y-49457828D01*
X83322061Y-48457828D02*
X83322061Y-49243542D01*
X83322061Y-49243542D02*
X83250632Y-49386400D01*
X83250632Y-49386400D02*
X83107775Y-49457828D01*
X83107775Y-49457828D02*
X82893489Y-49457828D01*
X82893489Y-49457828D02*
X82750632Y-49386400D01*
X82750632Y-49386400D02*
X82679204Y-49314971D01*
X81964918Y-48457828D02*
X81964918Y-49957828D01*
X81964918Y-48529257D02*
X81822061Y-48457828D01*
X81822061Y-48457828D02*
X81536346Y-48457828D01*
X81536346Y-48457828D02*
X81393489Y-48529257D01*
X81393489Y-48529257D02*
X81322061Y-48600685D01*
X81322061Y-48600685D02*
X81250632Y-48743542D01*
X81250632Y-48743542D02*
X81250632Y-49172114D01*
X81250632Y-49172114D02*
X81322061Y-49314971D01*
X81322061Y-49314971D02*
X81393489Y-49386400D01*
X81393489Y-49386400D02*
X81536346Y-49457828D01*
X81536346Y-49457828D02*
X81822061Y-49457828D01*
X81822061Y-49457828D02*
X81964918Y-49386400D01*
X80607775Y-48457828D02*
X80607775Y-49957828D01*
X80607775Y-48529257D02*
X80464918Y-48457828D01*
X80464918Y-48457828D02*
X80179203Y-48457828D01*
X80179203Y-48457828D02*
X80036346Y-48529257D01*
X80036346Y-48529257D02*
X79964918Y-48600685D01*
X79964918Y-48600685D02*
X79893489Y-48743542D01*
X79893489Y-48743542D02*
X79893489Y-49172114D01*
X79893489Y-49172114D02*
X79964918Y-49314971D01*
X79964918Y-49314971D02*
X80036346Y-49386400D01*
X80036346Y-49386400D02*
X80179203Y-49457828D01*
X80179203Y-49457828D02*
X80464918Y-49457828D01*
X80464918Y-49457828D02*
X80607775Y-49386400D01*
X79036346Y-49457828D02*
X79179203Y-49386400D01*
X79179203Y-49386400D02*
X79250632Y-49243542D01*
X79250632Y-49243542D02*
X79250632Y-47957828D01*
X78607775Y-48457828D02*
X78250632Y-49457828D01*
X77893489Y-48457828D02*
X78250632Y-49457828D01*
X78250632Y-49457828D02*
X78393489Y-49814971D01*
X78393489Y-49814971D02*
X78464918Y-49886400D01*
X78464918Y-49886400D02*
X78607775Y-49957828D01*
M02*
